<svg width="12" height="17" viewBox="0 0 12 17" fill="none" xmlns="http://www.w3.org/2000/svg">
<path d="M0.375 5.70123C0.375 3.99694 1.00739 2.67548 2.00962 1.77668C3.0168 0.873432 4.42294 0.375 5.99956 0.375C7.57652 0.375 8.98289 0.873443 9.99021 1.7767C10.9926 2.6755 11.625 3.99695 11.625 5.70123C11.625 6.51536 11.3018 7.4846 10.7767 8.51144C10.2552 9.53121 9.55301 10.5724 8.83645 11.5211C8.12086 12.4685 7.39666 13.3161 6.8351 13.9487C6.55446 14.2649 6.31487 14.5269 6.13699 14.7211L6.11893 14.7409C6.07534 14.7885 6.03536 14.8321 5.99957 14.8714C5.96385 14.8322 5.92395 14.7886 5.88046 14.7411L5.86219 14.7212C5.68433 14.5269 5.44478 14.2649 5.16417 13.9488C4.6027 13.3161 3.87861 12.4685 3.16313 11.5211C2.44667 10.5724 1.74464 9.53124 1.22318 8.51146C0.698119 7.48463 0.375 6.51537 0.375 5.70123ZM6.21318 15.1166L6.21204 15.115L6.21318 15.1166Z" stroke="#ACACAC" stroke-width="0.75"/>
<circle cx="6" cy="6" r="1.75" stroke="#ACACAC" stroke-width="0.5"/>
</svg>
